<svg width="1440" height="1122" viewBox="0 0 1440 1122" fill="none" xmlns="http://www.w3.org/2000/svg">
<g clip-path="url(#clip0_3110_1448)">
<rect width="1440" height="1122" fill="#FFECBE"/>
<rect y="-171" width="480" height="465.641" fill="url(#paint0_linear_3110_1448)"/>
<rect x="480" y="-171" width="480" height="465.641" fill="url(#paint1_linear_3110_1448)"/>
<rect x="960" y="-171" width="480" height="465.641" fill="url(#paint2_linear_3110_1448)"/>
<rect y="295" width="480" height="465.641" fill="url(#paint3_linear_3110_1448)"/>
<rect x="480" y="295" width="480" height="465.641" fill="url(#paint4_linear_3110_1448)"/>
<rect x="960" y="295" width="480" height="465.641" fill="url(#paint5_linear_3110_1448)"/>
<rect y="760" width="480" height="465.641" fill="url(#paint6_linear_3110_1448)"/>
<rect x="480" y="760" width="480" height="465.641" fill="url(#paint7_linear_3110_1448)"/>
<rect x="960" y="760" width="480" height="465.641" fill="url(#paint8_linear_3110_1448)"/>
<circle cx="240" cy="528" r="183" fill="#4877D3" fill-opacity="0.22"/>
<circle cx="1200" cy="79" r="183" fill="#4877D3" fill-opacity="0.22"/>
<circle cx="1200" cy="1016" r="183" fill="#4877D3" fill-opacity="0.22"/>
</g>
<defs>
<linearGradient id="paint0_linear_3110_1448" x1="240" y1="-171" x2="240" y2="294.641" gradientUnits="userSpaceOnUse">
<stop stop-color="#4E77C7"/>
<stop offset="1" stop-color="#CADCFF"/>
</linearGradient>
<linearGradient id="paint1_linear_3110_1448" x1="720" y1="-171" x2="720" y2="294.641" gradientUnits="userSpaceOnUse">
<stop stop-color="#1E61AE"/>
<stop offset="1" stop-color="#CEE5FF"/>
</linearGradient>
<linearGradient id="paint2_linear_3110_1448" x1="1200" y1="-171" x2="1200" y2="294.641" gradientUnits="userSpaceOnUse">
<stop stop-color="#4E77C7"/>
<stop offset="1" stop-color="#CADCFF"/>
</linearGradient>
<linearGradient id="paint3_linear_3110_1448" x1="240" y1="295" x2="240" y2="760.641" gradientUnits="userSpaceOnUse">
<stop stop-color="#1E61AE"/>
<stop offset="1" stop-color="#CEE5FF"/>
</linearGradient>
<linearGradient id="paint4_linear_3110_1448" x1="720" y1="295" x2="720" y2="760.641" gradientUnits="userSpaceOnUse">
<stop stop-color="#4E77C7"/>
<stop offset="1" stop-color="#CADCFF"/>
</linearGradient>
<linearGradient id="paint5_linear_3110_1448" x1="1200" y1="295" x2="1200" y2="760.641" gradientUnits="userSpaceOnUse">
<stop stop-color="#1E61AE"/>
<stop offset="1" stop-color="#CEE5FF"/>
</linearGradient>
<linearGradient id="paint6_linear_3110_1448" x1="240" y1="760" x2="240" y2="1225.64" gradientUnits="userSpaceOnUse">
<stop stop-color="#4E77C7"/>
<stop offset="1" stop-color="#CADCFF"/>
</linearGradient>
<linearGradient id="paint7_linear_3110_1448" x1="720" y1="760" x2="720" y2="1225.64" gradientUnits="userSpaceOnUse">
<stop stop-color="#1E61AE"/>
<stop offset="1" stop-color="#CEE5FF"/>
</linearGradient>
<linearGradient id="paint8_linear_3110_1448" x1="1200" y1="760" x2="1200" y2="1225.64" gradientUnits="userSpaceOnUse">
<stop stop-color="#4E77C7"/>
<stop offset="1" stop-color="#CADCFF"/>
</linearGradient>
<clipPath id="clip0_3110_1448">
<rect width="1440" height="1122" fill="white"/>
</clipPath>
</defs>
</svg>
