<svg width="175" height="218" viewBox="0 0 175 218" fill="none" xmlns="http://www.w3.org/2000/svg" xmlns:xlink="http://www.w3.org/1999/xlink">
<path d="M128.732 120.813C46.0966 132.441 -36.2051 50.1879 28.0276 41.0973C86.8305 40.4211 53.6882 64.0793 128.732 120.813Z" fill="#60446F" stroke="white"/>
<path d="M17.706 77.9569L142.118 81.6628L142.24 82.1723C151.563 121.047 156.828 143 129 182.016H36.5001C10.1556 157.876 1.9226 119.307 17.706 77.9569Z" fill="#FFDDB6" stroke="#FFC87A" stroke-width="0.963695"/>
<mask id="mask0_3119_1779" style="mask-type:alpha" maskUnits="userSpaceOnUse" x="40" y="159" width="77" height="59">
<path d="M70.7065 159.968H88.2593C93.6441 159.968 98.5498 163.062 100.87 167.922L114.869 197.246C119.296 206.52 112.534 217.24 102.257 217.24H55.0474C44.4953 217.24 37.7507 205.992 42.7212 196.684L58.3804 167.359C60.81 162.81 65.5486 159.968 70.7065 159.968Z" fill="#FBF8F0" stroke="#FFBF7E" stroke-width="0.963695"/>
</mask>
<g mask="url(#mask0_3119_1779)">
<path d="M70.7065 159.968H88.2593C93.6441 159.968 98.5498 163.062 100.87 167.922L114.869 197.246C119.296 206.52 112.534 217.24 102.257 217.24H55.0474C44.4953 217.24 37.7507 205.992 42.7212 196.684L58.3804 167.359C60.81 162.81 65.5486 159.968 70.7065 159.968Z" fill="#FBF8F0" stroke="#60446F" stroke-width="0.963695"/>
<path fill-rule="evenodd" clip-rule="evenodd" d="M53.6013 178.016L31 202.449C40.9244 205.802 50.9421 208.257 60.4894 209.84L47.9077 202.449L81.6716 180.835L108.942 200.006L107.184 209.232C113.488 207.22 117.71 204.131 119 200.006L107.184 178.016C103.468 188.833 98.1207 178.016 81.6716 180.835C66.0883 180.835 65.203 183.023 53.6013 178.016Z" fill="#60446F"/>
<path d="M81.6716 180.835L62.1925 196.241L60.4894 209.84C75.299 212.295 88.9768 212.653 99.4193 211.013L96.3892 196.241L81.6716 180.835Z" fill="#60446F"/>
<path d="M81.6716 180.835L47.9077 202.449L60.4894 209.84L62.1925 196.241L81.6716 180.835Z" fill="#876C95"/>
<path d="M108.942 200.006L81.6716 180.835L96.3892 196.241L99.4193 211.013C102.261 210.566 104.863 209.972 107.184 209.232L108.942 200.006Z" fill="#876C95"/>
<path d="M81.6716 180.835C66.0883 180.835 65.203 183.023 53.6013 178.016L31 202.449C40.9244 205.802 50.9421 208.257 60.4894 209.84M81.6716 180.835C98.1207 178.016 103.468 188.833 107.184 178.016L119 200.006C117.71 204.131 113.488 207.22 107.184 209.232M81.6716 180.835L47.9077 202.449L60.4894 209.84M81.6716 180.835L108.942 200.006L107.184 209.232M81.6716 180.835L62.1925 196.241L60.4894 209.84M81.6716 180.835L96.3892 196.241L99.4193 211.013M60.4894 209.84C75.299 212.295 88.9768 212.653 99.4193 211.013M107.184 209.232C104.863 209.972 102.261 210.566 99.4193 211.013" stroke="#341E40" stroke-width="0.614587"/>
</g>
<g filter="url(#filter0_d_3119_1779)">
<path d="M95.8843 43.0157C121.653 43.0157 142.543 60.319 142.543 81.6632C142.543 103.007 121.653 120.31 95.8843 120.31C90.2542 120.31 84.8572 119.483 79.8599 117.97C74.8626 119.483 69.4655 120.31 63.8354 120.31C38.0665 120.31 17.1765 103.007 17.1763 81.6632C17.1763 60.3191 38.0663 43.0158 63.8354 43.0157C69.4654 43.0157 74.8627 43.8411 79.8599 45.3546C84.8571 43.8411 90.2543 43.0158 95.8843 43.0157Z" fill="#FFDDB6"/>
<path d="M95.8843 43.0157V42.5339V42.5339V43.0157ZM142.543 81.6632L143.025 81.6632V81.6632H142.543ZM95.8843 120.31V120.792V120.792V120.31ZM79.8599 117.97L79.9995 117.509L79.8599 117.466L79.7202 117.509L79.8599 117.97ZM63.8354 120.31V120.792V120.792V120.31ZM17.1763 81.6632H16.6944V81.6632L17.1763 81.6632ZM63.8354 43.0157V42.5339V42.5339V43.0157ZM79.8599 45.3546L79.7202 45.8158L79.8599 45.8581L79.9995 45.8158L79.8599 45.3546ZM95.8843 43.0157V43.4976C121.476 43.4976 142.062 60.6661 142.062 81.6632H142.543H143.025C143.025 59.9719 121.831 42.5339 95.8843 42.5339V43.0157ZM142.543 81.6632L142.062 81.6632C142.061 102.66 121.476 119.828 95.8843 119.828V120.31V120.792C121.83 120.792 143.025 103.354 143.025 81.6632L142.543 81.6632ZM95.8843 120.31V119.828C90.3013 119.828 84.9514 119.008 79.9995 117.509L79.8599 117.97L79.7202 118.431C84.763 119.958 90.2071 120.792 95.8843 120.792V120.31ZM79.8599 117.97L79.7202 117.509C74.7684 119.008 69.4184 119.828 63.8354 119.828V120.31V120.792C69.5126 120.792 74.9568 119.958 79.9995 118.431L79.8599 117.97ZM63.8354 120.31V119.828C38.2436 119.828 17.6584 102.66 17.6581 81.6632L17.1763 81.6632L16.6944 81.6632C16.6947 103.354 37.8893 120.792 63.8354 120.792V120.31ZM17.1763 81.6632H17.6581C17.6581 60.6661 38.2435 43.4976 63.8354 43.4976V43.0157V42.5339C37.8891 42.5339 16.6944 59.972 16.6944 81.6632H17.1763ZM63.8354 43.0157V43.4976C69.4183 43.4976 74.7685 44.3161 79.7202 45.8158L79.8599 45.3546L79.9995 44.8935C74.9568 43.3662 69.5125 42.5339 63.8354 42.5339V43.0157ZM79.8599 45.3546L79.9995 45.8158C84.9512 44.316 90.3014 43.4976 95.8843 43.4976V43.0157V42.5339C90.2073 42.5339 84.7629 43.3661 79.7202 44.8935L79.8599 45.3546Z" fill="#FFC87A"/>
</g>
<path d="M134 109.52C134 141.225 111.909 147.016 81.8093 147.016C51.7098 147.016 25 141.225 25 109.52C25 77.8147 49.4005 81.1136 79.5 81.1136C109.6 81.1136 134 77.8147 134 109.52Z" fill="#FCE8DF"/>
<path d="M135.952 118.33C139.112 120.904 137.843 123.642 135.328 126.73C132.812 129.819 130.002 132.09 126.842 129.516C123.681 126.942 126.049 124.705 128.565 121.617C131.08 118.528 132.791 115.756 135.952 118.33Z" fill="#FCE8DF"/>
<g filter="url(#filter1_d_3119_1779)">
<path d="M18.9997 130.016C10.3935 110.681 10.8414 83.5909 25.1176 68.4276H133.118C145.176 87.4845 148.386 105.603 141.12 120.31H127.721C117.128 113.925 113.749 110.324 113.826 103.843C109.833 110.875 110.113 114.56 118.788 120.31H100.923C89.6368 114.796 89.1741 99.9646 91.4998 92.5157C86.4998 66.0157 30.3021 99.9685 18.9997 130.016Z" fill="#FFDDB6"/>
<path d="M18.9997 130.016C10.3935 110.681 10.8414 83.5909 25.1176 68.4276H133.118C145.176 87.4845 148.386 105.603 141.12 120.31H127.721C117.128 113.925 113.749 110.324 113.826 103.843C109.833 110.875 110.113 114.56 118.788 120.31H100.923C89.6368 114.796 89.1741 99.9646 91.4998 92.5157C86.4998 66.0157 30.3021 99.9685 18.9997 130.016Z" stroke="#FFC87A" stroke-width="0.963695"/>
</g>
<path d="M65.4707 154.674H93.8242C97.4238 154.674 100.342 157.593 100.342 161.192C100.342 166.196 94.936 169.333 90.5908 166.851L85.1592 163.749C81.7438 161.798 77.5512 161.798 74.1357 163.749L68.7031 166.851C64.358 169.333 58.9523 166.196 58.9521 161.192C58.9521 157.592 61.8709 154.674 65.4707 154.674Z" fill="#564D46" stroke="#B7B7B7" stroke-width="0.963695"/>
<path d="M84.9413 157.3C84.9413 159.017 82.571 161.604 79.6471 161.604C76.7233 161.604 74.353 159.017 74.353 157.3C74.353 155.584 76.7233 154.192 79.6471 154.192C82.571 154.192 84.9413 155.584 84.9413 157.3Z" fill="#FCE8DF"/>
<circle cx="79.647" cy="165.28" r="4.73541" fill="#AC75C8"/>
<circle cx="79.647" cy="165.28" r="3.73541" stroke="#FFC353" stroke-opacity="0.67" stroke-width="2"/>
<g id="Repeat group 1_inner" data-figma-trr="r6u1-0f">
<circle cx="58.7354" cy="180.016" r="2" fill="#AC75C8"/>
</g>
<use xlink:href="#Repeat%20group%201_inner" transform="translate(186.998 40.1416) rotate(60)"/>
<use xlink:href="#Repeat%20group%201_inner" transform="translate(245.733 222.157) rotate(120)"/>
<use xlink:href="#Repeat%20group%201_inner" transform="translate(117.471 364.031) rotate(-180)"/>
<use xlink:href="#Repeat%20group%201_inner" transform="translate(-69.5273 323.89) rotate(-120)"/>
<use xlink:href="#Repeat%20group%201_inner" transform="translate(-128.263 141.874) rotate(-60)"/>
<g id="Repeat group 2_inner" data-figma-trr="r6u1-0f">
<circle cx="51.4722" cy="185.488" r="2" fill="#AC75C8"/>
</g>
<use xlink:href="#Repeat%20group%202_inner" transform="translate(188.105 49.1678) rotate(60)"/>
<use xlink:href="#Repeat%20group%202_inner" transform="translate(239.577 236.656) rotate(120)"/>
<use xlink:href="#Repeat%20group%202_inner" transform="translate(102.944 374.976) rotate(-180)"/>
<use xlink:href="#Repeat%20group%202_inner" transform="translate(-85.1611 325.808) rotate(-120)"/>
<use xlink:href="#Repeat%20group%202_inner" transform="translate(-136.633 138.32) rotate(-60)"/>
<g id="Repeat group 3_inner" data-figma-trr="r6u1-0f">
<circle cx="101.472" cy="180.488" r="2" fill="#AC75C8"/>
</g>
<use xlink:href="#Repeat%20group%203_inner" transform="translate(208.775 3.3665) rotate(60)"/>
<use xlink:href="#Repeat%20group%203_inner" transform="translate(310.247 185.854) rotate(120)"/>
<use xlink:href="#Repeat%20group%203_inner" transform="translate(202.944 364.976) rotate(-180)"/>
<use xlink:href="#Repeat%20group%203_inner" transform="translate(-5.83096 361.609) rotate(-120)"/>
<use xlink:href="#Repeat%20group%203_inner" transform="translate(-107.303 179.121) rotate(-60)"/>
<g id="Repeat group 4_inner" data-figma-trr="r6u1-0f">
<circle cx="106.472" cy="187.488" r="2" fill="#AC75C8"/>
</g>
<use xlink:href="#Repeat%20group%204_inner" transform="translate(217.337 2.53637) rotate(60)"/>
<use xlink:href="#Repeat%20group%204_inner" transform="translate(323.81 192.024) rotate(120)"/>
<use xlink:href="#Repeat%20group%204_inner" transform="translate(212.944 378.976) rotate(-180)"/>
<use xlink:href="#Repeat%20group%204_inner" transform="translate(-4.39314 376.439) rotate(-120)"/>
<use xlink:href="#Repeat%20group%204_inner" transform="translate(-110.865 186.952) rotate(-60)"/>
<g filter="url(#filter2_f_3119_1779)">
<ellipse cx="107.5" cy="133.516" rx="11.5" ry="3.5" fill="#FD9F9F" fill-opacity="0.5"/>
</g>
<g filter="url(#filter3_f_3119_1779)">
<ellipse cx="42.5" cy="132.516" rx="11.5" ry="3.5" fill="#FD9F9F" fill-opacity="0.5"/>
</g>
<path fill-rule="evenodd" clip-rule="evenodd" d="M43.4629 176.44C46.285 178.306 50.1121 177.492 52.011 174.62L41.7913 167.862C39.8924 170.733 40.6408 174.574 43.4629 176.44Z" fill="#FCE8DF"/>
<path d="M50.3394 166.042C47.5173 164.176 43.6901 164.99 41.7913 167.862L52.011 174.62C53.9099 171.749 53.1615 167.909 50.3394 166.042Z" fill="#60446F"/>
<path d="M51.6726 174.685C49.8031 177.287 46.2373 177.987 43.5953 176.239C40.9535 174.492 40.2022 170.937 41.8646 168.199L51.6726 174.685ZM50.2061 166.243C52.848 167.99 53.6004 171.545 51.9381 174.284L42.1302 167.797C43.9996 165.196 47.5642 164.496 50.2061 166.243Z" stroke="#858585" stroke-width="0.481847"/>
<path fill-rule="evenodd" clip-rule="evenodd" d="M115.986 176.44C113.164 178.306 109.337 177.492 107.438 174.62L117.658 167.862C119.557 170.733 118.808 174.574 115.986 176.44Z" fill="#FCE8DF"/>
<path d="M109.11 166.042C111.932 164.176 115.759 164.99 117.658 167.862L107.438 174.62C105.539 171.749 106.288 167.909 109.11 166.042Z" fill="#60446F"/>
<path d="M107.777 174.685C109.646 177.287 113.212 177.987 115.854 176.239C118.496 174.492 119.247 170.937 117.585 168.199L107.777 174.685ZM109.243 166.243C106.601 167.99 105.849 171.545 107.511 174.284L117.319 167.797C115.45 165.196 111.885 164.496 109.243 166.243Z" stroke="#858585" stroke-width="0.481847"/>
<ellipse cx="53.2941" cy="122.486" rx="5.29412" ry="8.47059" fill="#AC75C8"/>
<circle cx="53.4707" cy="125.457" r="5.5" fill="#E2A8FF"/>
<ellipse cx="95.6471" cy="122.486" rx="5.29412" ry="8.47059" fill="#AC75C8"/>
<circle cx="95.4707" cy="125.457" r="5.5" fill="#E2A8FF"/>
<path d="M22.5596 66.3099H137.325L139.47 79.0158L15.5879 82.1923C17.3798 76.2675 18.9765 72.8056 22.5596 66.3099Z" fill="#FFDDB6"/>
<circle cx="133" cy="133.016" r="4" fill="#60446F"/>
<circle cx="132.5" cy="128.516" r="1.5" fill="#E27402"/>
<circle cx="133" cy="138.016" r="4" fill="#60446F"/>
<circle cx="133" cy="143.016" r="4" fill="#60446F"/>
<path d="M145.084 3.96399L161.779 0.567505L171.331 20.3429L153.827 11.2452L141.495 21.0128L145.805 43.7726L153.235 88.1652C160.252 94.0054 167.203 100.465 174.169 107.601C163.918 114.307 161.078 114.992 145.978 115.593C69.7312 99.9552 81.0512 63.8208 42.7744 41.5997C43.5743 41.7047 44.3708 41.8127 45.1641 41.923L108.688 0.539185L145.084 3.96399Z" fill="#564D46"/>
<path fill-rule="evenodd" clip-rule="evenodd" d="M145.084 3.96399L145.037 4.46179L145.111 4.46874L145.184 4.45395L145.084 3.96399ZM161.779 0.567505L162.23 0.350038L162.06 5.84126e-05L161.68 0.0775413L161.779 0.567505ZM171.331 20.3429L171.1 20.7865L172.436 21.4806L171.781 20.1254L171.331 20.3429ZM153.827 11.2452L154.058 10.8016L153.77 10.6523L153.517 10.8533L153.827 11.2452ZM141.495 21.0128L141.185 20.6209L140.948 20.8087L141.004 21.1058L141.495 21.0128ZM145.805 43.7726L146.298 43.69L146.296 43.6796L145.805 43.7726ZM153.235 88.1652L152.742 88.2477L152.773 88.4307L152.915 88.5495L153.235 88.1652ZM174.169 107.601L174.443 108.019L174.951 107.686L174.527 107.251L174.169 107.601ZM145.978 115.593L145.877 116.083L145.937 116.095L145.997 116.092L145.978 115.593ZM42.7744 41.5997L42.8395 41.104L42.5234 42.0321L42.7744 41.5997ZM45.1641 41.923L45.0952 42.4182L45.2804 42.444L45.437 42.3419L45.1641 41.923ZM108.688 0.539185L108.734 0.0413835L108.561 0.0250447L108.415 0.120245L108.688 0.539185ZM145.084 3.96399L145.184 4.45395L161.879 1.05747L161.779 0.567505L161.68 0.0775413L144.984 3.47403L145.084 3.96399ZM161.779 0.567505L161.329 0.784972L170.881 20.5604L171.331 20.3429L171.781 20.1254L162.23 0.350038L161.779 0.567505ZM171.331 20.3429L171.562 19.8992L154.058 10.8016L153.827 11.2452L153.597 11.6889L171.1 20.7865L171.331 20.3429ZM153.827 11.2452L153.517 10.8533L141.185 20.6209L141.495 21.0128L141.806 21.4048L154.138 11.6372L153.827 11.2452ZM141.495 21.0128L141.004 21.1058L145.313 43.8656L145.805 43.7726L146.296 43.6796L141.986 20.9198L141.495 21.0128ZM145.805 43.7726L145.312 43.8551L152.742 88.2477L153.235 88.1652L153.728 88.0826L146.298 43.69L145.805 43.7726ZM153.235 88.1652L152.915 88.5495C159.918 94.3776 166.856 100.825 173.811 107.95L174.169 107.601L174.527 107.251C167.55 100.104 160.587 93.6333 153.555 87.7809L153.235 88.1652ZM174.169 107.601L173.895 107.182C168.775 110.532 165.557 112.342 161.757 113.405C157.944 114.471 153.517 114.793 145.958 115.093L145.978 115.593L145.997 116.092C153.539 115.792 158.082 115.471 162.026 114.368C165.984 113.261 169.311 111.376 174.443 108.019L174.169 107.601ZM145.978 115.593L146.078 115.103C108.056 107.305 91.9277 94.416 80.5213 80.7448C69.1208 67.0806 62.2654 52.3368 43.0254 41.1673L42.7744 41.5997L42.5234 42.0321C61.5602 53.0837 68.1832 67.5177 79.7535 81.3854C91.3179 95.246 107.653 108.243 145.877 116.083L145.978 115.593ZM42.7744 41.5997L42.7093 42.0955C43.5078 42.2003 44.303 42.3081 45.0952 42.4182L45.1641 41.923L45.2329 41.4277C44.4385 41.3173 43.6407 41.2092 42.8395 41.104L42.7744 41.5997ZM45.1641 41.923L45.437 42.3419L108.96 0.958124L108.688 0.539185L108.415 0.120245L44.8911 41.504L45.1641 41.923ZM108.688 0.539185L108.641 1.03699L145.037 4.46179L145.084 3.96399L145.131 3.46619L108.734 0.0413835L108.688 0.539185Z" fill="#FFE7E7"/>
<path d="M120.212 66.0157L114.819 79.0157L122.369 82.0157L128.84 68.0157L120.212 66.0157Z" fill="#60446F"/>
<path fill-rule="evenodd" clip-rule="evenodd" d="M95.3614 49.5226L87.0617 59.3167L81.3848 66.0157L114.819 79.0157L120.212 66.0157L105.113 38.0157L95.3614 49.5226ZM122.369 82.0157L128.84 68.0157L158.5 60.0157L151.49 92.0157L122.369 82.0157Z" fill="#E1D7FC"/>
<path d="M69.5209 27.0157L55.5 35.5157L87.0617 59.3167L95.3614 49.5226L69.5209 27.0157Z" fill="#60446F"/>
<path d="M69.8496 26.6388L95.3066 48.8126L104.731 37.6925L105.205 37.1339L105.553 37.7784L120.545 65.5792L128.832 67.5001L158.37 59.5333L159.165 59.3185L158.988 60.1232L151.978 92.1232L151.857 92.671L151.327 92.4884L122.207 82.4884L122.195 82.4845L122.185 82.4806L114.635 79.4806V79.4796L81.2041 66.4816L80.5498 66.2277L81.0029 65.6925L86.3379 59.3966L55.1992 35.9152L54.6094 35.4708L55.2412 35.088L69.2617 26.588L69.5742 26.3986L69.8496 26.6388Z" stroke="#E2A8FF"/>
<defs>
<filter id="filter0_d_3119_1779" x="14.7669" y="41.5702" width="130.186" height="82.1123" filterUnits="userSpaceOnUse" color-interpolation-filters="sRGB">
<feFlood flood-opacity="0" result="BackgroundImageFix"/>
<feColorMatrix in="SourceAlpha" type="matrix" values="0 0 0 0 0 0 0 0 0 0 0 0 0 0 0 0 0 0 127 0" result="hardAlpha"/>
<feOffset dy="0.963695"/>
<feGaussianBlur stdDeviation="0.963695"/>
<feComposite in2="hardAlpha" operator="out"/>
<feColorMatrix type="matrix" values="0 0 0 0 0.87451 0 0 0 0 0.639216 0 0 0 0 0.498039 0 0 0 1 0"/>
<feBlend mode="normal" in2="BackgroundImageFix" result="effect1_dropShadow_3119_1779"/>
<feBlend mode="normal" in="SourceGraphic" in2="effect1_dropShadow_3119_1779" result="shape"/>
</filter>
<filter id="filter1_d_3119_1779" x="10.89" y="66.9821" width="136.491" height="67.1938" filterUnits="userSpaceOnUse" color-interpolation-filters="sRGB">
<feFlood flood-opacity="0" result="BackgroundImageFix"/>
<feColorMatrix in="SourceAlpha" type="matrix" values="0 0 0 0 0 0 0 0 0 0 0 0 0 0 0 0 0 0 127 0" result="hardAlpha"/>
<feOffset dy="0.963695"/>
<feGaussianBlur stdDeviation="0.963695"/>
<feComposite in2="hardAlpha" operator="out"/>
<feColorMatrix type="matrix" values="0 0 0 0 0.87451 0 0 0 0 0.639216 0 0 0 0 0.498039 0 0 0 1 0"/>
<feBlend mode="normal" in2="BackgroundImageFix" result="effect1_dropShadow_3119_1779"/>
<feBlend mode="normal" in="SourceGraphic" in2="effect1_dropShadow_3119_1779" result="shape"/>
</filter>
<filter id="filter2_f_3119_1779" x="92.1452" y="126.161" width="30.7096" height="14.7096" filterUnits="userSpaceOnUse" color-interpolation-filters="sRGB">
<feFlood flood-opacity="0" result="BackgroundImageFix"/>
<feBlend mode="normal" in="SourceGraphic" in2="BackgroundImageFix" result="shape"/>
<feGaussianBlur stdDeviation="1.92739" result="effect1_foregroundBlur_3119_1779"/>
</filter>
<filter id="filter3_f_3119_1779" x="27.1452" y="125.161" width="30.7096" height="14.7096" filterUnits="userSpaceOnUse" color-interpolation-filters="sRGB">
<feFlood flood-opacity="0" result="BackgroundImageFix"/>
<feBlend mode="normal" in="SourceGraphic" in2="BackgroundImageFix" result="shape"/>
<feGaussianBlur stdDeviation="1.92739" result="effect1_foregroundBlur_3119_1779"/>
</filter>
</defs>
</svg>
